<mxfile host="65bd71144e">
    <diagram id="GHTKA-b6unNHT8-kJKTR" name="Pagina-1">
        <mxGraphModel dx="463" dy="1596" grid="1" gridSize="10" guides="1" tooltips="1" connect="1" arrows="1" fold="1" page="1" pageScale="1" pageWidth="827" pageHeight="1169" math="0" shadow="0">
            <root>
                <mxCell id="0"/>
                <mxCell id="1" parent="0"/>
                <mxCell id="2" value="User" style="whiteSpace=wrap;html=1;align=center;" parent="1" vertex="1">
                    <mxGeometry x="120" y="40" width="100" height="40" as="geometry"/>
                </mxCell>
                <mxCell id="3" value="ArticleVersion" style="whiteSpace=wrap;html=1;align=center;" parent="1" vertex="1">
                    <mxGeometry x="480" y="40" width="100" height="40" as="geometry"/>
                </mxCell>
                <mxCell id="4" value="isEditor" style="ellipse;whiteSpace=wrap;html=1;align=center;" parent="1" vertex="1">
                    <mxGeometry x="50" y="-40" width="100" height="40" as="geometry"/>
                </mxCell>
                <mxCell id="5" value="isModerator" style="ellipse;whiteSpace=wrap;html=1;align=center;" parent="1" vertex="1">
                    <mxGeometry x="160" y="-40" width="100" height="40" as="geometry"/>
                </mxCell>
                <mxCell id="6" value="isAdministrator" style="ellipse;whiteSpace=wrap;html=1;align=center;" parent="1" vertex="1">
                    <mxGeometry x="270" y="-40" width="100" height="40" as="geometry"/>
                </mxCell>
                <mxCell id="7" value="Name" style="ellipse;whiteSpace=wrap;html=1;align=center;" parent="1" vertex="1">
                    <mxGeometry x="10" y="100" width="100" height="40" as="geometry"/>
                </mxCell>
                <mxCell id="8" value="Surname" style="ellipse;whiteSpace=wrap;html=1;align=center;" parent="1" vertex="1">
                    <mxGeometry x="120" y="100" width="100" height="40" as="geometry"/>
                </mxCell>
                <mxCell id="9" value="Class" style="ellipse;whiteSpace=wrap;html=1;align=center;" parent="1" vertex="1">
                    <mxGeometry y="40" width="100" height="40" as="geometry"/>
                </mxCell>
                <mxCell id="10" value="birthYear" style="ellipse;whiteSpace=wrap;html=1;align=center;" parent="1" vertex="1">
                    <mxGeometry x="50" y="160" width="100" height="40" as="geometry"/>
                </mxCell>
                <mxCell id="11" value="&lt;u&gt;Email&lt;/u&gt;" style="ellipse;whiteSpace=wrap;html=1;align=center;" parent="1" vertex="1">
                    <mxGeometry x="160" y="160" width="100" height="40" as="geometry"/>
                </mxCell>
                <mxCell id="12" value="Password" style="ellipse;whiteSpace=wrap;html=1;align=center;" parent="1" vertex="1">
                    <mxGeometry x="230" y="100" width="100" height="40" as="geometry"/>
                </mxCell>
                <mxCell id="17" value="" style="endArrow=none;html=1;rounded=0;" parent="1" source="13" target="3" edge="1">
                    <mxGeometry relative="1" as="geometry">
                        <mxPoint x="270" y="50" as="sourcePoint"/>
                        <mxPoint x="430" y="50" as="targetPoint"/>
                    </mxGeometry>
                </mxCell>
                <mxCell id="19" value="N" style="resizable=0;html=1;whiteSpace=wrap;align=right;verticalAlign=bottom;" parent="17" connectable="0" vertex="1">
                    <mxGeometry x="1" relative="1" as="geometry"/>
                </mxCell>
                <mxCell id="20" value="" style="endArrow=none;html=1;rounded=0;" parent="1" source="2" target="13" edge="1">
                    <mxGeometry relative="1" as="geometry">
                        <mxPoint x="220" y="60" as="sourcePoint"/>
                        <mxPoint x="480" y="60" as="targetPoint"/>
                    </mxGeometry>
                </mxCell>
                <mxCell id="21" value="1" style="resizable=0;html=1;whiteSpace=wrap;align=left;verticalAlign=bottom;" parent="20" connectable="0" vertex="1">
                    <mxGeometry x="-1" relative="1" as="geometry"/>
                </mxCell>
                <mxCell id="13" value="Interact" style="shape=rhombus;perimeter=rhombusPerimeter;whiteSpace=wrap;html=1;align=center;" parent="1" vertex="1">
                    <mxGeometry x="280" y="30" width="120" height="60" as="geometry"/>
                </mxCell>
                <mxCell id="23" value="Titolo" style="ellipse;whiteSpace=wrap;html=1;align=center;" parent="1" vertex="1">
                    <mxGeometry x="480" y="-40" width="100" height="40" as="geometry"/>
                </mxCell>
                <mxCell id="24" value="Abstract" style="ellipse;whiteSpace=wrap;html=1;align=center;" vertex="1" parent="1">
                    <mxGeometry x="590" y="-40" width="100" height="40" as="geometry"/>
                </mxCell>
                <mxCell id="25" value="PresentationImage" style="ellipse;whiteSpace=wrap;html=1;align=center;" vertex="1" parent="1">
                    <mxGeometry x="590" y="10" width="100" height="40" as="geometry"/>
                </mxCell>
                <mxCell id="26" value="Text" style="ellipse;whiteSpace=wrap;html=1;align=center;" vertex="1" parent="1">
                    <mxGeometry x="590" y="60" width="100" height="40" as="geometry"/>
                </mxCell>
                <mxCell id="27" value="ArticleVersion" style="whiteSpace=wrap;html=1;align=center;" vertex="1" parent="1">
                    <mxGeometry x="480" y="160" width="100" height="40" as="geometry"/>
                </mxCell>
                <mxCell id="28" value="ArticleVersion" style="whiteSpace=wrap;html=1;align=center;" vertex="1" parent="1">
                    <mxGeometry x="640" y="160" width="100" height="40" as="geometry"/>
                </mxCell>
            </root>
        </mxGraphModel>
    </diagram>
</mxfile>